<mxfile host="app.diagrams.net" modified="2024-03-15T22:43:54.536Z" agent="Mozilla/5.0 (Windows NT 10.0; Win64; x64) AppleWebKit/537.36 (KHTML, like Gecko) Chrome/122.0.0.0 Safari/537.36 Edg/122.0.0.0" etag="gVzbnSSZk2QKTf1SEMGi" version="24.0.0" type="github">
  <diagram name="Page-1" id="2YBvvXClWsGukQMizWep">
    <mxGraphModel dx="1623" dy="1315" grid="1" gridSize="10" guides="1" tooltips="1" connect="1" arrows="1" fold="1" page="1" pageScale="1" pageWidth="850" pageHeight="1100" math="0" shadow="0">
      <root>
        <mxCell id="0" />
        <mxCell id="1" parent="0" />
        <mxCell id="oAXVd915D4fVSuoCIaVp-27" value="" style="html=1;verticalAlign=bottom;endArrow=open;dashed=1;endSize=8;edgeStyle=elbowEdgeStyle;elbow=vertical;curved=0;rounded=0;" edge="1" parent="1">
          <mxGeometry relative="1" as="geometry">
            <mxPoint x="200" y="638.41" as="targetPoint" />
            <Array as="points">
              <mxPoint x="315" y="638.41" />
            </Array>
            <mxPoint x="594.5" y="638.41" as="sourcePoint" />
          </mxGeometry>
        </mxCell>
        <mxCell id="oAXVd915D4fVSuoCIaVp-25" value="" style="endArrow=classic;html=1;rounded=0;" edge="1" parent="1">
          <mxGeometry width="50" height="50" relative="1" as="geometry">
            <mxPoint x="190" y="590" as="sourcePoint" />
            <mxPoint x="586.5" y="590" as="targetPoint" />
          </mxGeometry>
        </mxCell>
        <mxCell id="oAXVd915D4fVSuoCIaVp-26" value="" style="endArrow=classic;html=1;rounded=0;exitX=0.1;exitY=0.314;exitDx=0;exitDy=0;exitPerimeter=0;" edge="1" parent="1" source="oAXVd915D4fVSuoCIaVp-3" target="oAXVd915D4fVSuoCIaVp-9">
          <mxGeometry width="50" height="50" relative="1" as="geometry">
            <mxPoint x="200" y="653.41" as="sourcePoint" />
            <mxPoint x="596.5" y="653.41" as="targetPoint" />
          </mxGeometry>
        </mxCell>
        <mxCell id="oAXVd915D4fVSuoCIaVp-23" value="" style="endArrow=classic;html=1;rounded=0;" edge="1" parent="1">
          <mxGeometry width="50" height="50" relative="1" as="geometry">
            <mxPoint x="192.5" y="500" as="sourcePoint" />
            <mxPoint x="589" y="500" as="targetPoint" />
          </mxGeometry>
        </mxCell>
        <mxCell id="5B07uJpMZxi0BaR1OIcB-36" value="" style="shape=umlLifeline;perimeter=lifelinePerimeter;whiteSpace=wrap;html=1;container=1;dropTarget=0;collapsible=0;recursiveResize=0;outlineConnect=0;portConstraint=eastwest;newEdgeStyle={&quot;curved&quot;:0,&quot;rounded&quot;:0};participant=umlActor;" parent="1" vertex="1">
          <mxGeometry x="-86" y="1000" width="20" height="440" as="geometry" />
        </mxCell>
        <mxCell id="5B07uJpMZxi0BaR1OIcB-11" value="Tela_Emprestimo" style="shape=umlLifeline;perimeter=lifelinePerimeter;whiteSpace=wrap;html=1;container=0;dropTarget=0;collapsible=0;recursiveResize=0;outlineConnect=0;portConstraint=eastwest;newEdgeStyle={&quot;edgeStyle&quot;:&quot;elbowEdgeStyle&quot;,&quot;elbow&quot;:&quot;vertical&quot;,&quot;curved&quot;:0,&quot;rounded&quot;:0};" parent="1" vertex="1">
          <mxGeometry x="110" y="1010" width="100" height="430" as="geometry" />
        </mxCell>
        <mxCell id="5B07uJpMZxi0BaR1OIcB-12" value="" style="html=1;points=[];perimeter=orthogonalPerimeter;outlineConnect=0;targetShapes=umlLifeline;portConstraint=eastwest;newEdgeStyle={&quot;edgeStyle&quot;:&quot;elbowEdgeStyle&quot;,&quot;elbow&quot;:&quot;vertical&quot;,&quot;curved&quot;:0,&quot;rounded&quot;:0};" parent="5B07uJpMZxi0BaR1OIcB-11" vertex="1">
          <mxGeometry x="45" y="70" width="10" height="290" as="geometry" />
        </mxCell>
        <mxCell id="5B07uJpMZxi0BaR1OIcB-15" value="Livro" style="shape=umlLifeline;perimeter=lifelinePerimeter;whiteSpace=wrap;html=1;container=0;dropTarget=0;collapsible=0;recursiveResize=0;outlineConnect=0;portConstraint=eastwest;newEdgeStyle={&quot;edgeStyle&quot;:&quot;elbowEdgeStyle&quot;,&quot;elbow&quot;:&quot;vertical&quot;,&quot;curved&quot;:0,&quot;rounded&quot;:0};" parent="1" vertex="1">
          <mxGeometry x="290" y="1010" width="100" height="430" as="geometry" />
        </mxCell>
        <mxCell id="5B07uJpMZxi0BaR1OIcB-16" value="" style="html=1;points=[];perimeter=orthogonalPerimeter;outlineConnect=0;targetShapes=umlLifeline;portConstraint=eastwest;newEdgeStyle={&quot;edgeStyle&quot;:&quot;elbowEdgeStyle&quot;,&quot;elbow&quot;:&quot;vertical&quot;,&quot;curved&quot;:0,&quot;rounded&quot;:0};" parent="5B07uJpMZxi0BaR1OIcB-15" vertex="1">
          <mxGeometry x="45" y="90" width="10" height="30" as="geometry" />
        </mxCell>
        <mxCell id="5B07uJpMZxi0BaR1OIcB-17" value="pesquisarLivros(idLivro)" style="html=1;verticalAlign=bottom;endArrow=block;edgeStyle=elbowEdgeStyle;elbow=vertical;curved=0;rounded=0;" parent="1" edge="1">
          <mxGeometry relative="1" as="geometry">
            <mxPoint x="165" y="1102" as="sourcePoint" />
            <Array as="points">
              <mxPoint x="250" y="1102" />
            </Array>
            <mxPoint x="335" y="1102" as="targetPoint" />
          </mxGeometry>
        </mxCell>
        <mxCell id="5B07uJpMZxi0BaR1OIcB-18" value="" style="html=1;verticalAlign=bottom;endArrow=open;dashed=1;endSize=8;edgeStyle=elbowEdgeStyle;elbow=vertical;curved=0;rounded=0;" parent="1" edge="1">
          <mxGeometry relative="1" as="geometry">
            <mxPoint x="165" y="1130" as="targetPoint" />
            <Array as="points">
              <mxPoint x="260" y="1130" />
            </Array>
            <mxPoint x="335" y="1130" as="sourcePoint" />
          </mxGeometry>
        </mxCell>
        <mxCell id="5B07uJpMZxi0BaR1OIcB-21" value="Emprestimo" style="shape=umlLifeline;perimeter=lifelinePerimeter;whiteSpace=wrap;html=1;container=0;dropTarget=0;collapsible=0;recursiveResize=0;outlineConnect=0;portConstraint=eastwest;newEdgeStyle={&quot;edgeStyle&quot;:&quot;elbowEdgeStyle&quot;,&quot;elbow&quot;:&quot;vertical&quot;,&quot;curved&quot;:0,&quot;rounded&quot;:0};" parent="1" vertex="1">
          <mxGeometry x="510" y="1010" width="100" height="430" as="geometry" />
        </mxCell>
        <mxCell id="5B07uJpMZxi0BaR1OIcB-22" value="" style="html=1;points=[];perimeter=orthogonalPerimeter;outlineConnect=0;targetShapes=umlLifeline;portConstraint=eastwest;newEdgeStyle={&quot;edgeStyle&quot;:&quot;elbowEdgeStyle&quot;,&quot;elbow&quot;:&quot;vertical&quot;,&quot;curved&quot;:0,&quot;rounded&quot;:0};" parent="5B07uJpMZxi0BaR1OIcB-21" vertex="1">
          <mxGeometry x="45" y="210" width="10" height="110" as="geometry" />
        </mxCell>
        <mxCell id="5B07uJpMZxi0BaR1OIcB-23" value="Aluno" style="shape=umlLifeline;perimeter=lifelinePerimeter;whiteSpace=wrap;html=1;container=0;dropTarget=0;collapsible=0;recursiveResize=0;outlineConnect=0;portConstraint=eastwest;newEdgeStyle={&quot;edgeStyle&quot;:&quot;elbowEdgeStyle&quot;,&quot;elbow&quot;:&quot;vertical&quot;,&quot;curved&quot;:0,&quot;rounded&quot;:0};" parent="1" vertex="1">
          <mxGeometry x="400" y="1010" width="100" height="430" as="geometry" />
        </mxCell>
        <mxCell id="5B07uJpMZxi0BaR1OIcB-24" value="" style="html=1;points=[];perimeter=orthogonalPerimeter;outlineConnect=0;targetShapes=umlLifeline;portConstraint=eastwest;newEdgeStyle={&quot;edgeStyle&quot;:&quot;elbowEdgeStyle&quot;,&quot;elbow&quot;:&quot;vertical&quot;,&quot;curved&quot;:0,&quot;rounded&quot;:0};" parent="5B07uJpMZxi0BaR1OIcB-23" vertex="1">
          <mxGeometry x="45" y="149" width="10" height="30" as="geometry" />
        </mxCell>
        <mxCell id="5B07uJpMZxi0BaR1OIcB-25" value="pesquisarAluno(idAlunoo)" style="html=1;verticalAlign=bottom;endArrow=block;edgeStyle=elbowEdgeStyle;elbow=vertical;curved=0;rounded=0;" parent="1" source="5B07uJpMZxi0BaR1OIcB-12" edge="1">
          <mxGeometry relative="1" as="geometry">
            <mxPoint x="167" y="1160" as="sourcePoint" />
            <Array as="points">
              <mxPoint x="252" y="1160" />
            </Array>
            <mxPoint x="450" y="1160" as="targetPoint" />
          </mxGeometry>
        </mxCell>
        <mxCell id="5B07uJpMZxi0BaR1OIcB-28" value="" style="html=1;verticalAlign=bottom;endArrow=open;dashed=1;endSize=8;edgeStyle=elbowEdgeStyle;elbow=vertical;curved=0;rounded=0;" parent="1" edge="1">
          <mxGeometry relative="1" as="geometry">
            <mxPoint x="165" y="1189" as="targetPoint" />
            <Array as="points">
              <mxPoint x="270" y="1189" />
            </Array>
            <mxPoint x="445" y="1189" as="sourcePoint" />
          </mxGeometry>
        </mxCell>
        <mxCell id="5B07uJpMZxi0BaR1OIcB-29" value="efetuarEmprestimo(idAlunoo, idFunc, idLivro)" style="html=1;verticalAlign=bottom;endArrow=block;edgeStyle=elbowEdgeStyle;elbow=vertical;curved=0;rounded=0;" parent="1" source="5B07uJpMZxi0BaR1OIcB-12" target="5B07uJpMZxi0BaR1OIcB-22" edge="1">
          <mxGeometry relative="1" as="geometry">
            <mxPoint x="175" y="1227" as="sourcePoint" />
            <Array as="points">
              <mxPoint x="262" y="1227" />
            </Array>
            <mxPoint x="460" y="1227" as="targetPoint" />
          </mxGeometry>
        </mxCell>
        <mxCell id="5B07uJpMZxi0BaR1OIcB-30" value="" style="html=1;verticalAlign=bottom;endArrow=open;dashed=1;endSize=8;edgeStyle=elbowEdgeStyle;elbow=vertical;curved=0;rounded=0;" parent="1" edge="1">
          <mxGeometry relative="1" as="geometry">
            <mxPoint x="165" y="1330" as="targetPoint" />
            <Array as="points">
              <mxPoint x="280" y="1330" />
            </Array>
            <mxPoint x="559.5" y="1330" as="sourcePoint" />
          </mxGeometry>
        </mxCell>
        <mxCell id="5B07uJpMZxi0BaR1OIcB-32" value="" style="html=1;points=[];perimeter=orthogonalPerimeter;outlineConnect=0;targetShapes=umlLifeline;portConstraint=eastwest;newEdgeStyle={&quot;edgeStyle&quot;:&quot;elbowEdgeStyle&quot;,&quot;elbow&quot;:&quot;vertical&quot;,&quot;curved&quot;:0,&quot;rounded&quot;:0};" parent="1" vertex="1">
          <mxGeometry x="-81" y="1070" width="10" height="330" as="geometry" />
        </mxCell>
        <mxCell id="5B07uJpMZxi0BaR1OIcB-37" value="" style="endArrow=classic;html=1;rounded=0;" parent="1" source="5B07uJpMZxi0BaR1OIcB-32" edge="1">
          <mxGeometry width="50" height="50" relative="1" as="geometry">
            <mxPoint x="-30" y="1081" as="sourcePoint" />
            <mxPoint x="155" y="1081" as="targetPoint" />
          </mxGeometry>
        </mxCell>
        <mxCell id="5B07uJpMZxi0BaR1OIcB-39" value="EfetuarEmprestimo(idAluno,&lt;div&gt;idFunc, idLivro)&lt;/div&gt;" style="text;html=1;align=center;verticalAlign=middle;resizable=0;points=[];autosize=1;strokeColor=none;fillColor=none;" parent="1" vertex="1">
          <mxGeometry x="-65" y="1044" width="170" height="40" as="geometry" />
        </mxCell>
        <mxCell id="5B07uJpMZxi0BaR1OIcB-40" value="" style="html=1;verticalAlign=bottom;endArrow=open;dashed=1;endSize=8;edgeStyle=elbowEdgeStyle;elbow=vertical;curved=0;rounded=0;" parent="1" source="5B07uJpMZxi0BaR1OIcB-12" edge="1">
          <mxGeometry relative="1" as="geometry">
            <mxPoint x="-70" y="1370" as="targetPoint" />
            <Array as="points">
              <mxPoint x="-20" y="1370" />
            </Array>
            <mxPoint x="140" y="1370" as="sourcePoint" />
          </mxGeometry>
        </mxCell>
        <mxCell id="5B07uJpMZxi0BaR1OIcB-41" value="Funcionário" style="text;html=1;align=center;verticalAlign=middle;resizable=0;points=[];autosize=1;strokeColor=none;fillColor=none;" parent="1" vertex="1">
          <mxGeometry x="-120" y="971" width="90" height="30" as="geometry" />
        </mxCell>
        <mxCell id="oAXVd915D4fVSuoCIaVp-1" value="" style="shape=umlLifeline;perimeter=lifelinePerimeter;whiteSpace=wrap;html=1;container=1;dropTarget=0;collapsible=0;recursiveResize=0;outlineConnect=0;portConstraint=eastwest;newEdgeStyle={&quot;curved&quot;:0,&quot;rounded&quot;:0};participant=umlActor;" vertex="1" parent="1">
          <mxGeometry x="-52" y="419" width="20" height="440" as="geometry" />
        </mxCell>
        <mxCell id="oAXVd915D4fVSuoCIaVp-2" value="TelaCadastroLivro" style="shape=umlLifeline;perimeter=lifelinePerimeter;whiteSpace=wrap;html=1;container=0;dropTarget=0;collapsible=0;recursiveResize=0;outlineConnect=0;portConstraint=eastwest;newEdgeStyle={&quot;edgeStyle&quot;:&quot;elbowEdgeStyle&quot;,&quot;elbow&quot;:&quot;vertical&quot;,&quot;curved&quot;:0,&quot;rounded&quot;:0};" vertex="1" parent="1">
          <mxGeometry x="144" y="429" width="100" height="430" as="geometry" />
        </mxCell>
        <mxCell id="oAXVd915D4fVSuoCIaVp-3" value="" style="html=1;points=[];perimeter=orthogonalPerimeter;outlineConnect=0;targetShapes=umlLifeline;portConstraint=eastwest;newEdgeStyle={&quot;edgeStyle&quot;:&quot;elbowEdgeStyle&quot;,&quot;elbow&quot;:&quot;vertical&quot;,&quot;curved&quot;:0,&quot;rounded&quot;:0};" vertex="1" parent="oAXVd915D4fVSuoCIaVp-2">
          <mxGeometry x="45" y="70" width="10" height="290" as="geometry" />
        </mxCell>
        <mxCell id="oAXVd915D4fVSuoCIaVp-8" value="Livro" style="shape=umlLifeline;perimeter=lifelinePerimeter;whiteSpace=wrap;html=1;container=0;dropTarget=0;collapsible=0;recursiveResize=0;outlineConnect=0;portConstraint=eastwest;newEdgeStyle={&quot;edgeStyle&quot;:&quot;elbowEdgeStyle&quot;,&quot;elbow&quot;:&quot;vertical&quot;,&quot;curved&quot;:0,&quot;rounded&quot;:0};" vertex="1" parent="1">
          <mxGeometry x="544" y="429" width="100" height="430" as="geometry" />
        </mxCell>
        <mxCell id="oAXVd915D4fVSuoCIaVp-9" value="" style="html=1;points=[];perimeter=orthogonalPerimeter;outlineConnect=0;targetShapes=umlLifeline;portConstraint=eastwest;newEdgeStyle={&quot;edgeStyle&quot;:&quot;elbowEdgeStyle&quot;,&quot;elbow&quot;:&quot;vertical&quot;,&quot;curved&quot;:0,&quot;rounded&quot;:0};" vertex="1" parent="oAXVd915D4fVSuoCIaVp-8">
          <mxGeometry x="45" y="270" width="10" height="50" as="geometry" />
        </mxCell>
        <mxCell id="oAXVd915D4fVSuoCIaVp-21" value="" style="html=1;points=[];perimeter=orthogonalPerimeter;outlineConnect=0;targetShapes=umlLifeline;portConstraint=eastwest;newEdgeStyle={&quot;edgeStyle&quot;:&quot;elbowEdgeStyle&quot;,&quot;elbow&quot;:&quot;vertical&quot;,&quot;curved&quot;:0,&quot;rounded&quot;:0};" vertex="1" parent="oAXVd915D4fVSuoCIaVp-8">
          <mxGeometry x="45" y="161" width="10" height="50" as="geometry" />
        </mxCell>
        <mxCell id="oAXVd915D4fVSuoCIaVp-22" value="" style="html=1;points=[];perimeter=orthogonalPerimeter;outlineConnect=0;targetShapes=umlLifeline;portConstraint=eastwest;newEdgeStyle={&quot;edgeStyle&quot;:&quot;elbowEdgeStyle&quot;,&quot;elbow&quot;:&quot;vertical&quot;,&quot;curved&quot;:0,&quot;rounded&quot;:0};" vertex="1" parent="oAXVd915D4fVSuoCIaVp-8">
          <mxGeometry x="45" y="71" width="10" height="50" as="geometry" />
        </mxCell>
        <mxCell id="oAXVd915D4fVSuoCIaVp-15" value="" style="html=1;verticalAlign=bottom;endArrow=open;dashed=1;endSize=8;edgeStyle=elbowEdgeStyle;elbow=vertical;curved=0;rounded=0;" edge="1" parent="1">
          <mxGeometry relative="1" as="geometry">
            <mxPoint x="199" y="749" as="targetPoint" />
            <Array as="points">
              <mxPoint x="314" y="749" />
            </Array>
            <mxPoint x="593.5" y="749" as="sourcePoint" />
          </mxGeometry>
        </mxCell>
        <mxCell id="oAXVd915D4fVSuoCIaVp-16" value="" style="html=1;points=[];perimeter=orthogonalPerimeter;outlineConnect=0;targetShapes=umlLifeline;portConstraint=eastwest;newEdgeStyle={&quot;edgeStyle&quot;:&quot;elbowEdgeStyle&quot;,&quot;elbow&quot;:&quot;vertical&quot;,&quot;curved&quot;:0,&quot;rounded&quot;:0};" vertex="1" parent="1">
          <mxGeometry x="-47" y="489" width="10" height="330" as="geometry" />
        </mxCell>
        <mxCell id="oAXVd915D4fVSuoCIaVp-17" value="" style="endArrow=classic;html=1;rounded=0;" edge="1" parent="1" source="oAXVd915D4fVSuoCIaVp-16">
          <mxGeometry width="50" height="50" relative="1" as="geometry">
            <mxPoint x="4" y="500" as="sourcePoint" />
            <mxPoint x="189" y="500" as="targetPoint" />
          </mxGeometry>
        </mxCell>
        <mxCell id="oAXVd915D4fVSuoCIaVp-18" value="CadastrarLivro(titulo, autor)" style="text;html=1;align=center;verticalAlign=middle;resizable=0;points=[];autosize=1;strokeColor=none;fillColor=none;" vertex="1" parent="1">
          <mxGeometry x="-31" y="468" width="170" height="30" as="geometry" />
        </mxCell>
        <mxCell id="oAXVd915D4fVSuoCIaVp-19" value="" style="html=1;verticalAlign=bottom;endArrow=open;dashed=1;endSize=8;edgeStyle=elbowEdgeStyle;elbow=vertical;curved=0;rounded=0;" edge="1" parent="1" source="oAXVd915D4fVSuoCIaVp-3">
          <mxGeometry relative="1" as="geometry">
            <mxPoint x="-36" y="789" as="targetPoint" />
            <Array as="points">
              <mxPoint x="14" y="789" />
            </Array>
            <mxPoint x="174" y="789" as="sourcePoint" />
          </mxGeometry>
        </mxCell>
        <mxCell id="oAXVd915D4fVSuoCIaVp-20" value="Funcionário" style="text;html=1;align=center;verticalAlign=middle;resizable=0;points=[];autosize=1;strokeColor=none;fillColor=none;" vertex="1" parent="1">
          <mxGeometry x="-86" y="390" width="90" height="30" as="geometry" />
        </mxCell>
        <mxCell id="oAXVd915D4fVSuoCIaVp-24" value="" style="html=1;verticalAlign=bottom;endArrow=open;dashed=1;endSize=8;edgeStyle=elbowEdgeStyle;elbow=vertical;curved=0;rounded=0;" edge="1" parent="1">
          <mxGeometry relative="1" as="geometry">
            <mxPoint x="200" y="549" as="targetPoint" />
            <Array as="points">
              <mxPoint x="315" y="549" />
            </Array>
            <mxPoint x="594.5" y="549" as="sourcePoint" />
          </mxGeometry>
        </mxCell>
        <mxCell id="oAXVd915D4fVSuoCIaVp-28" value="[se livro existir]&lt;br&gt;alterarLivro(idLivro, quantidade)" style="text;html=1;align=center;verticalAlign=middle;resizable=0;points=[];autosize=1;strokeColor=none;fillColor=none;" vertex="1" parent="1">
          <mxGeometry x="280" y="655" width="190" height="40" as="geometry" />
        </mxCell>
        <mxCell id="oAXVd915D4fVSuoCIaVp-29" value="[se livro não existe]&lt;br&gt;cadastrarLivros(titulo, autor)" style="text;html=1;align=center;verticalAlign=middle;resizable=0;points=[];autosize=1;strokeColor=none;fillColor=none;" vertex="1" parent="1">
          <mxGeometry x="300" y="550" width="170" height="40" as="geometry" />
        </mxCell>
        <mxCell id="oAXVd915D4fVSuoCIaVp-30" value="Dados do livro" style="text;html=1;align=center;verticalAlign=middle;resizable=0;points=[];autosize=1;strokeColor=none;fillColor=none;" vertex="1" parent="1">
          <mxGeometry x="335" y="520" width="100" height="30" as="geometry" />
        </mxCell>
        <mxCell id="oAXVd915D4fVSuoCIaVp-31" value="pesquisarLivros(titulo)" style="text;html=1;align=center;verticalAlign=middle;resizable=0;points=[];autosize=1;strokeColor=none;fillColor=none;" vertex="1" parent="1">
          <mxGeometry x="315" y="468" width="140" height="30" as="geometry" />
        </mxCell>
      </root>
    </mxGraphModel>
  </diagram>
</mxfile>
